<?xml version="1.0" encoding="utf-8"?>
<!-- Generator: Adobe Illustrator 15.0.0, SVG Export Plug-In . SVG Version: 6.00 Build 0)  -->
<!DOCTYPE svg PUBLIC "-//W3C//DTD SVG 1.1//EN" "http://www.w3.org/Graphics/SVG/1.1/DTD/svg11.dtd">
<svg version="1.1" id="Final_Framed" xmlns="http://www.w3.org/2000/svg" xmlns:xlink="http://www.w3.org/1999/xlink" x="0px"
	 y="0px" width="360px" height="360px" viewBox="0 0 360 360" enable-background="new 0 0 360 360" xml:space="preserve">
<g>
	<path d="M129.641,244.835c0.855,2.14,2.181,3.271,3.832,3.271c0.111,0,0.224-0.006,0.334-0.017c2.389-0.196,3.763-1.999,4.766-4.17
		c0.142,0.45,0.353,0.858,0.636,1.214c0.666,0.835,1.667,1.315,2.749,1.315c1.519,0,2.838-0.899,3.56-2.414
		c2.231-0.222,3.505-1.14,4.475-2.654c0.009,1.036,0.131,2.142,0.573,3.099c0.571,1.237,1.427,1.92,2.409,1.92l0,0
		c1.029,0,2.004-0.762,2.608-2.037c0.43-0.928,0.735-2.076,1.03-3.187c0.216-0.813,0.439-1.653,0.704-2.383
		c0.019,0.132,0.04,0.306,0.061,0.534c0.175,2.055,1.231,5.281,3.425,5.746c0.209,0.043,0.421,0.064,0.629,0.064
		c1.962,0,3.759-1.898,5.341-5.65c0.055-0.137,0.04-0.284-0.041-0.403c-0.084-0.125-0.234-0.203-0.389-0.203
		c-0.185,0-0.342,0.106-0.411,0.28c-0.692,1.757-2.315,4.544-3.724,4.544c-0.107,0-0.214-0.017-0.316-0.047
		c-0.772-0.242-0.981-1.865-1.183-3.435c-0.261-2.029-0.531-4.125-2.103-4.125c-1.121,0-1.741,1.127-2.158,2.111
		c-0.36,0.881-0.65,1.939-0.931,2.964c-0.286,1.042-0.555,2.026-0.884,2.8c-0.241,0.555-0.56,0.809-0.755,0.809
		c-0.209,0-0.489-0.32-0.645-1.221c-0.153-0.843-0.1-1.811-0.048-2.748c0.026-0.461,0.052-0.939,0.052-1.391
		c0-0.601-1.004-1.084-1.835-1.084c-0.685,0-1.153,0.316-1.296,0.863c-1.115,2.598-2.156,3.568-4.271,3.88
		c0.394-1.613,0.245-3.946-0.838-5.51c-0.658-0.95-1.578-1.474-2.663-1.515c-1.213-0.041-2.466,0.659-3.26,1.813
		c-0.71,1.031-0.917,2.248-0.561,3.271c-0.094,0.43-0.142,0.846-0.149,1.246c-0.877,2.153-2.132,4.45-3.917,4.569
		c-0.03,0.002-0.061,0.002-0.09,0.002c-1.707,0-2.172-3.004-2.374-5.267c-0.321-3.104-0.211-6.612,0.328-10.43
		c0.413,0.016,0.798,0.022,1.172,0.022c4.854,0,8-1.376,9.618-4.207l0.02-0.047c0.04-0.14,0.014-0.284-0.071-0.396
		c-0.087-0.114-0.228-0.187-0.368-0.187c-0.16,0-0.292,0.09-0.352,0.236c-1.769,2.973-5.439,3.373-8.798,3.373
		c-0.314,0-0.641-0.002-1.037-0.011c0.016-0.101,0.032-0.2,0.048-0.3c0.205-1.289,0.399-2.506,0.776-3.739
		c0.027-0.089,0.035-0.229-0.085-0.391c-0.272-0.369-1.117-0.692-1.808-0.692c-0.65,0-1.103,0.268-1.273,0.749
		c-0.34,0.907-0.604,2.333-0.89,4.191c-2.569-0.243-5.436-0.519-7.682-0.894c0.026-0.188,0.051-0.392,0.077-0.603
		c0.075-0.608,0.151-1.238,0.28-1.65c0.027-0.089,0.035-0.229-0.085-0.392c-0.272-0.368-1.103-0.691-1.777-0.691
		c-0.641,0-1.064,0.273-1.19,0.766c-0.139,0.486-0.312,1.408-0.408,2.021c-0.795-0.151-2.723-0.473-4.786-0.473
		c-2.856,0-4.69,0.604-5.452,1.794l-0.011,0.02c-0.071,0.141-0.068,0.291,0.006,0.412c0.07,0.114,0.193,0.182,0.33,0.182
		c0.127,0,0.249-0.062,0.337-0.172c0.625-0.814,1.935-1.229,3.891-1.229c1.918,0,3.994,0.393,5.454,0.708
		c-0.445,2.301-0.855,6.522-0.699,10.459c-0.972,1.912-1.998,2.685-3.841,2.956c0.394-1.613,0.245-3.946-0.838-5.51
		c-0.658-0.95-1.578-1.474-2.663-1.515c-1.214-0.042-2.466,0.659-3.26,1.813c-0.645,0.936-0.873,2.022-0.644,2.981
		c-2.602,3.494-7.214,6.113-11.123,6.113c-5.448,0-8.844-3.969-9.084-10.618c-0.289-8.005,4.271-17.278,11.278-17.784
		c2.087-0.154,3.718,0.387,4.838,1.612c1.956,2.14,2.068,5.952,1.816,8.778c-0.021,0.126,0.01,0.246,0.087,0.34
		c0.081,0.1,0.204,0.156,0.336,0.156c0.197,0,0.36-0.125,0.407-0.313l0.007-0.041c0.431-4.434-0.203-7.562-1.939-9.564
		c-1.306-1.506-3.243-2.327-5.76-2.441c-0.154-0.007-0.305-0.01-0.457-0.01c-4.289,0-8.097,2.506-10.725,7.057
		c-3.476,6.021-3.915,14-1.044,18.973c1.919,3.324,5.116,5.08,9.247,5.08h0.001c0.303,0,0.615-0.01,0.927-0.028
		c4.015-0.245,8.362-2.577,11.118-5.722c-0.009,1.053,0.276,1.981,0.844,2.695c0.666,0.835,1.667,1.315,2.749,1.315
		c1.519,0,2.838-0.899,3.56-2.414c2.067-0.205,3.313-1.009,4.257-2.331c0.155,1.842,0.457,3.549,0.969,4.87
		c0.853,2.132,2.211,3.259,3.929,3.259c0.063,0,0.126-0.001,0.19-0.004c3.029-0.137,4.809-5.948,6.015-11.84
		C128.698,240.246,128.784,242.549,129.641,244.835z M142.718,245.227L142.718,245.227c-0.78,0-1.362-0.66-1.555-1.717
		c1.076,0.409,2.265,0.516,3.289,0.536C143.973,244.792,143.346,245.227,142.718,245.227z M140.072,238.035
		c0.602-0.715,1.391-1.143,2.112-1.143c0.041,0,0.081,0.002,0.122,0.004c0.84,0.057,1.521,0.474,2.023,1.238
		c0.911,1.387,0.993,3.582,0.555,5.004c-1.355,0.049-2.653-0.184-3.741-0.66c0.013-1.099,0.453-2.127,1.302-3.056
		c0.114-0.114,0.14-0.28,0.071-0.448c-0.16-0.387-0.843-0.817-1.566-0.817c-0.354,0-0.883,0.106-1.371,0.623
		C139.708,238.523,139.874,238.271,140.072,238.035z M110.59,245.227L110.59,245.227c-0.78,0-1.363-0.66-1.555-1.717
		c1.075,0.409,2.265,0.516,3.289,0.536C111.845,244.792,111.217,245.227,110.59,245.227z M112.757,243.139
		c-1.354,0.049-2.653-0.184-3.741-0.66c0.013-1.099,0.453-2.127,1.302-3.056c0.114-0.114,0.14-0.28,0.071-0.448
		c-0.16-0.387-0.843-0.817-1.566-0.817c-0.354,0-0.883,0.106-1.372,0.623c0.129-0.257,0.294-0.509,0.493-0.745
		c0.602-0.715,1.391-1.143,2.112-1.143c0.041,0,0.081,0.002,0.122,0.004c0.84,0.057,1.521,0.474,2.023,1.238
		C113.113,239.521,113.194,241.716,112.757,243.139z M123.186,248.458c-0.033,0.002-0.065,0.003-0.098,0.003
		c-1.665,0-2.118-2.688-2.327-5.027c-0.375-4.007,0.105-10.238,0.594-13.211c1.939,0.34,4.615,0.649,7.769,0.896l-0.088,0.68
		c-0.061,0.287-0.134,0.656-0.222,1.09C128.049,236.697,125.72,248.289,123.186,248.458z"/>
	<path d="M246.648,253.422c-1.485,2.438-1.746,5.008-0.695,6.876c0.721,1.283,1.941,2.019,3.349,2.019
		c1.741,0,3.507-1.125,4.97-3.17c2.429-3.416,2.629-9.037,2.735-12.47c2.737-2.127,4.632-4.478,5.791-7.183l0.015-0.043
		c0.033-0.131,0.002-0.27-0.084-0.381c-0.088-0.112-0.224-0.18-0.361-0.18c-0.158,0-0.299,0.082-0.387,0.229l-0.017,0.033
		c-1.032,2.399-2.647,4.492-4.929,6.38c0.096-2.816,0.088-5.671-0.021-8.296l-0.004-0.029c-0.095-0.628-1.058-1.098-1.855-1.098
		c-0.807,0-1.322,0.468-1.354,1.224l-0.035,0.169c-0.426,1.992-1.423,6.657-2.884,6.657c-0.177,0-0.319-0.067-0.448-0.211
		c-0.615-0.685-0.736-2.755-0.363-6.15c0.01-0.095,0.019-0.177,0.027-0.249c0.019-0.229-0.06-0.445-0.227-0.626
		c-0.258-0.28-0.727-0.455-1.223-0.455c-0.787,0-1.612,0.456-1.684,1.47c-0.021,0.256-0.059,0.813-0.064,1.517
		c-0.752,1.758-1.936,3.707-3.07,5.043c-1.334,1.587-2.162,1.92-2.622,1.92c-0.263,0-0.493-0.104-0.702-0.321
		c-0.635-0.658-1.349-2.604-1.162-8.117c3.44-2.863,9.791-10.489,9.29-15.615c-0.265-2.684-1.946-4.559-4.088-4.559
		c-0.899,0-1.801,0.322-2.68,0.959c-3.496,2.518-5.409,9.08-5.689,19.514c0,0.08-0.012,0.162-0.03,0.242
		c-0.578-0.326-1.196-0.492-1.846-0.492c-1.963,0-3.971,1.58-4.67,3.678c-0.134,0.402-0.216,0.762-0.257,1.081
		c-0.513,0.552-1.054,0.92-1.563,0.92c-0.107,0-0.215-0.017-0.315-0.047c-0.772-0.242-0.981-1.865-1.183-3.435
		c-0.262-2.029-0.531-4.125-2.104-4.125c-1.121,0-1.741,1.127-2.158,2.111c-0.361,0.881-0.65,1.939-0.931,2.964
		c-0.286,1.042-0.556,2.026-0.884,2.8c-0.241,0.555-0.561,0.809-0.756,0.809c-0.209,0-0.488-0.32-0.645-1.221
		c-0.152-0.843-0.1-1.811-0.047-2.748c0.025-0.461,0.052-0.939,0.052-1.391c0-0.601-1.004-1.084-1.835-1.084
		c-0.682,0-1.148,0.313-1.294,0.855c-1.756,3.824-3.679,5.359-4.894,5.521c-0.31,0.037-0.549-0.06-0.748-0.303
		c-0.943-1.165-0.51-4.978-0.246-6.233c0.175-0.8-0.051-1.293-0.271-1.565c-0.27-0.335-0.688-0.528-1.15-0.528
		c-0.695,0-1.543,0.475-1.772,1.516c-0.825,1.988-2.384,4.885-3.282,5.146c-0.018,0.004-0.027,0.006-0.039,0.005
		c-0.181-0.082-0.229-1.201,0.142-2.203c0.737-1.968,1.538-1.968,1.922-1.968l0.162,0.001c0.126,0,0.335,0,0.472-0.16
		c0.131-0.149,0.154-0.349,0.063-0.547c-0.221-0.487-1.104-0.949-1.816-0.949c-1.85,0-3.35,1.623-3.891,3.236
		c-2.481,3.833-7.439,6.802-11.6,6.802c-5.449,0-8.845-3.969-9.085-10.617c-0.289-8.006,4.271-17.279,11.278-17.785
		c2.089-0.154,3.718,0.388,4.838,1.612c1.957,2.14,2.068,5.952,1.816,8.778c-0.021,0.126,0.01,0.246,0.086,0.34
		c0.082,0.1,0.205,0.156,0.337,0.156c0.196,0,0.36-0.125,0.407-0.311l0.006-0.043c0.432-4.434-0.202-7.562-1.938-9.563
		c-1.306-1.507-3.243-2.328-5.76-2.442c-0.154-0.007-0.304-0.01-0.457-0.01c-4.289,0-8.097,2.506-10.724,7.057
		c-3.477,6.021-3.916,14-1.044,18.973c1.919,3.324,5.117,5.08,9.248,5.08h0.002c0.303,0,0.615-0.01,0.928-0.028
		c4.146-0.253,8.646-2.731,11.383-6.034c0.047,0.46,0.189,0.866,0.43,1.199c0.383,0.533,0.979,0.829,1.676,0.829
		c0.479,0,0.994-0.144,1.484-0.413c1.067-0.565,2.035-2.094,2.68-3.331c-0.026,1.905,0.23,3.983,1.282,5.123
		c0.521,0.563,1.19,0.849,1.992,0.849c1.634,0,3.946-1.337,5.969-4.933c0.013,1.016,0.14,2.093,0.571,3.03
		c0.57,1.236,1.426,1.918,2.409,1.918c1.03,0,2.004-0.76,2.608-2.037c0.43-0.928,0.735-2.075,1.03-3.186
		c0.216-0.813,0.438-1.652,0.704-2.383c0.02,0.132,0.04,0.305,0.061,0.534c0.174,2.055,1.23,5.28,3.426,5.746
		c0.209,0.043,0.421,0.065,0.629,0.065c0.838,0,1.646-0.349,2.419-1.037c0.073,0.24,0.177,0.432,0.284,0.58
		c0.339,0.471,0.88,0.729,1.522,0.729c1.114,0,2.388-0.754,3.404-2.017c0.552-0.685,1.097-1.562,1.534-2.455
		c0.135,2.937,0.844,5.285,1.966,6.42c0.539,0.547,1.164,0.822,1.856,0.822l0,0c1.338,0,2.859-1.039,4.521-3.089
		c0.843-1.04,1.699-2.37,2.436-3.76c0.129,1.384,0.457,2.831,1.207,3.646c0.709,0.771,1.7,0.897,2.896,0.352
		c1.629-0.752,2.283-2.555,2.802-4.441c0.033,2.313,0.009,4.484-0.073,6.588C250.792,249.227,248.18,250.896,246.648,253.422z
		 M252.16,257.811c-0.835,2.082-2.071,3.276-3.391,3.276c-0.826,0-1.576-0.485-2.054-1.333c-0.868-1.538-0.625-3.722,0.653-5.842
		c1.404-2.342,3.882-3.859,6.277-5.326l0.047-0.027C253.566,250.891,253.279,254.992,252.16,257.811z M243.549,220.594
		c0.727-0.867,1.43-1.326,2.028-1.326c1.106,0,1.894,1.607,2.099,3.196c0.54,4.175-4.795,11.091-8.293,14.25
		C239.689,231.386,240.495,224.245,243.549,220.594z M233.908,242.876c-0.85,1.019-1.233,1.07-1.303,1.07
		c-0.035,0-0.053-0.009-0.073-0.037c-0.101-0.136-0.188-0.642,0.124-1.679c0.345-1.119,1.377-2.896,2.682-2.896
		c0.163,0,0.327,0.028,0.491,0.084C235.375,240.73,234.698,241.949,233.908,242.876z"/>
	<path d="M43.992,201.969c0-5.083-3.461-7.625-8.815-10.708c-4.759-2.758-6.111-4.38-6.111-7.571c0-2.703,2.163-5.298,5.354-5.298
		c3.353,0,5.57,1.622,6.598,5.136c0.162,0.434,0.486,1.244,0.919,1.244c0.703,0,1.136-0.703,1.136-1.838
		c0-0.811-0.216-3.245-0.216-3.894c0-0.595-0.378-1.46-0.703-1.514c-1.893-0.487-4.218-1.298-6.706-1.298
		c-2.542,0-4.975,0.703-6.652,1.73c-2.163,1.352-4.326,3.785-4.326,7.354c0,5.19,4.002,8.22,7.192,10.166
		c5.787,3.623,7.301,5.299,7.301,7.949c0,3.84-3.19,5.57-5.462,5.57c-2.758,0-6.327-1.352-8.382-5.949
		c-0.324-0.757-0.541-1.352-1.298-1.352c-0.433,0-0.919,0.541-0.919,1.729c0,1.298,0.216,3.461,0.865,4.813
		c0.271,0.595,0.487,0.865,0.757,1.082c1.244,0.974,5.408,1.893,7.896,1.893c2.271,0,5.516-0.811,7.409-2.055
		C41.559,208.08,43.992,205.484,43.992,201.969z"/>
	<path d="M53.05,190.396c-2.379,1.893-4.326,5.19-4.326,8.977c0,2.434,0.865,5.732,3.19,8.003c2.271,2.217,5.354,3.515,8.544,3.515
		c3.569,0,6.219-1.459,8.166-3.244c1.838-1.676,3.515-4.598,3.515-8.707c-0.054-4.976-4.056-11.304-11.519-11.304
		C57.809,187.639,54.834,188.882,53.05,190.396z M66.84,199.318c0,3.138-0.325,5.787-1.46,7.248
		c-1.082,1.352-2.812,2.108-4.11,2.108c-2,0-3.569-1.028-4.11-1.46c-2.217-1.893-3.245-5.624-3.245-8.652
		c0-4.109,1.676-6.543,2.217-7.139c0.757-0.811,2.488-1.514,3.677-1.514C64.406,189.91,66.84,194.723,66.84,199.318z"/>
	<path d="M79.456,209.055c0.757,0.864,2.542,1.838,4.272,1.838c3.353,0,5.84-1.623,8.436-3.516c0.216-0.162,0.487,0.163,0.487,0.216
		c0.054,0.703,0.108,2.109,0.162,2.488S93.192,211,93.408,211c0.487,0,1.46-0.162,2.326-0.379c0.973-0.271,3.083-0.596,4.434-0.757
		c0.325-0.054,0.919-0.541,0.919-1.46c0-0.217-0.324-0.92-0.433-0.92c-0.541,0.055-2.379,0.324-2.758,0.324
		c-0.108,0-0.811-0.162-0.865-2.055c-0.108-2.379-0.054-14.006-0.054-16.332c0-0.595-0.378-1.298-0.595-1.298
		c-2.217,0.054-4.326,0.162-6.436,0.162c-0.703,0-1.352,0.541-1.352,0.866c0,0.486,0.541,0.918,1.298,1.188
		c0.649,0.216,1.244,0.487,1.785,0.703c0.379,0.108,0.812,1.082,0.812,1.676c0,2.597,0,9.193-0.216,10.979
		c-0.163,1.514-1.244,2.379-1.46,2.542c-0.541,0.378-2.325,1.188-3.948,1.188c-0.703,0-2.055-0.108-2.866-0.702
		c-0.757-0.596-1.298-1.244-1.352-4.164c-0.054-3.785-0.054-10.492-0.054-12.816c0-1.137-0.163-1.73-0.541-1.73
		c-0.378,0-4.164,0.271-5.354,0.271c-0.216,0-1.677,0.163-1.677,0.919c0,0.541,0.541,0.919,1.136,1.244
		c1.568,0.811,2.055,1.893,2.055,2.379c0,3.947,0,11.843,0,13.087C78.212,207.215,78.915,208.514,79.456,209.055z"/>
	<path d="M110.032,192.289c0-0.596,0.27-0.811,0.378-0.811c1.244,0,4.11-0.055,6.111-0.055c0.595,0,1.082-0.107,1.244-0.703
		c0.054-0.27,0.054-1.135,0.054-1.729c-0.054-0.324-0.324-0.919-0.703-0.919c-1.244,0-6.057,0.216-6.652,0.216
		c-0.378,0-0.433-0.433-0.433-0.649c0-0.324,0.054-2.055,0.054-2.648c0-0.271-0.271-0.813-0.487-0.813
		c-0.271,0-1.298,0.325-2.163,1.406c-0.974,1.244-2.975,2.486-3.894,3.245c-0.486,0.433-1.135,0.919-1.135,1.136
		c0,0.27,0.757,1.46,1.622,1.568c1.514,0.216,1.676,0.27,1.676,0.865c0,5.137-0.27,8.436-0.27,12.222
		c0,1.946,0.324,3.19,0.757,3.839c1.19,1.73,3.299,2.488,4.759,2.488c1.352,0,3.785-0.379,5.516-1.676
		c0.865-0.649,1.298-1.299,1.298-1.894c0-0.433-0.27-0.812-0.486-0.812c-0.325,0-0.703,0.217-1.19,0.326
		c-0.811,0.215-1.514,0.485-2.488,0.485c-0.648,0-2.217-0.433-2.92-1.188c-0.649-0.758-0.865-1.623-0.811-4.057L110.032,192.289z"/>
	<path d="M137.449,208.514c-0.865,0.324-1.244,0.702-1.244,1.027c0,0.541,0.703,0.865,1.623,0.865c1.46,0,2.812-0.163,3.948-0.163
		c1.514,0,2.542,0.163,4.002,0.163c0.595,0,1.568-0.163,1.568-0.865c0-0.486-0.486-0.975-1.352-1.244
		c-1.73-0.595-1.947-1.082-1.947-2.271c0-0.811-0.163-6.976-0.163-8.707c0-2.865-0.703-5.84-2.001-7.246
		c-0.973-1.137-2.487-2.434-5.516-2.434c-1.406,0-2.326,0.107-3.461,0.541c-1.568,0.594-3.028,1.567-3.623,1.946
		c-0.108,0.054-0.378-0.108-0.378-0.487c0-2.434,0.162-11.626,0.162-13.574c0-2.109-0.378-2.487-0.595-2.487
		c-0.487,0-0.865,0.162-1.623,0.433c-1.244,0.541-3.028,1.244-3.786,1.46c-0.595,0.162-1.135,0.541-1.135,1.082
		c0,0.271,0.324,0.812,1.189,1.353c0.919,0.487,1.19,0.865,1.298,2.163c0.108,1.514,0.216,3.786,0.216,11.194
		c0,11.844-0.216,13.844-0.324,14.872c-0.108,1.189-0.812,1.785-2.379,2.271c-0.865,0.271-1.406,0.54-1.406,1.136
		c0,0.486,0.487,0.865,1.568,0.865c0.919,0,2.92-0.163,4.326-0.163c1.46,0,3.137,0.163,4.11,0.163c0.812,0,1.406-0.541,1.406-1.137
		c0-0.271-0.433-0.541-1.082-0.812c-1.298-0.649-1.839-1.188-1.839-1.567c-0.108-1.244-0.108-12.276-0.108-13.412
		c0-0.271,0.433-1.19,0.595-1.299c1.082-1.027,2.325-1.568,4.813-1.568c1.568,0,3.353,0.92,4.11,1.84
		c0.703,0.919,1.082,2.109,1.136,3.677c0.054,2.379,0,8.112,0,9.41C139.558,207.484,139.233,207.918,137.449,208.514z"/>
	<path d="M155.911,196.453c0.973,0,11.249-0.162,11.627-0.162c0.541,0,1.46-1.027,1.46-1.623c0-1.352-0.216-2.758-0.919-3.785
		c-1.298-2.109-3.785-3.244-6.381-3.244c-2.271,0-4.542,0.648-6.327,1.838c-3.245,2.109-5.246,5.84-5.246,10.222
		c0,6.598,3.84,11.194,10.6,11.194c2.866,0,5.732-1.244,7.733-3.354c0.433-0.487,0.703-1.082,0.703-1.678
		c0-0.594-0.433-0.864-0.648-0.702c-1.028,0.702-3.353,2.055-5.462,2.055c-4.651,0-8.274-3.677-8.274-8.489
		c0-0.326,0.054-1.299,0.271-1.677C155.154,196.777,155.749,196.453,155.911,196.453z M160.075,189.585
		c2.866,0,4.164,1.46,4.164,3.082c0,1.839-2.488,1.947-4.542,1.947c-1.568,0-3.353-0.054-3.948-0.108
		c-0.108,0-0.379-0.324-0.325-0.541C156.127,191.262,158.723,189.585,160.075,189.585z"/>
	<path d="M180.835,193.1c0.703-0.918,1.515-1.244,2.488-1.244c0.702,0,1.514,0.326,1.946,0.649c0.541,0.378,0.865,0.541,1.244,0.541
		c0.217,0,0.596-0.163,0.865-0.433c0.758-0.596,2.163-2.109,2.163-3.299c0-0.596-1.405-1.678-2.974-1.678
		c-2.109,0-4.272,1.461-5.84,3.191c-0.164,0.216-0.542,0-0.542-0.162c-0.054-0.813-0.054-1.893-0.108-2.65
		c0-0.162-0.433-0.757-0.649-0.757c-0.433,0-0.865,0.216-1.568,0.541c-1.136,0.595-2.813,1.353-3.678,1.839
		c-0.433,0.215-0.757,0.648-0.757,1.135c0,0.326,0.595,0.812,1.189,1.244c1.298,0.92,1.352,1.299,1.352,1.623
		c0,2.865-0.054,9.518-0.162,11.95c-0.054,1.244-0.216,2.056-2.325,2.813c-0.649,0.216-1.244,0.541-1.244,1.136
		c0,0.271,0.487,0.865,1.46,0.865c1.514,0,2.487-0.163,4.38-0.163c1.568,0,4.327,0.216,6.003,0.216c0.648,0,1.352-0.487,1.352-0.919
		c0-0.487-0.703-0.92-1.947-1.244c-2.434-0.648-2.865-1.189-3.027-3.73c-0.163-1.894-0.108-9.681-0.108-10.222
		C180.349,194.02,180.619,193.371,180.835,193.1z"/>
	<path d="M208.648,208.405c-0.92,0.378-1.19,0.811-1.19,1.136c0,0.703,0.757,0.865,1.46,0.865c0.648,0,1.838-0.163,3.407-0.163
		c1.622,0,3.353,0.163,4.056,0.163s1.568-0.325,1.568-0.865c0-0.486-0.379-1.027-1.622-1.516c-0.974-0.485-1.353-0.973-1.406-2.541
		c-0.108-2.435-0.108-5.463-0.162-8.112c-0.054-3.731-0.757-5.949-1.623-7.192c-0.811-1.189-2.217-2.541-4.975-2.541
		c-3.407,0-6.003,1.622-7.679,2.758c-0.162,0.107-0.434,0.107-0.379-0.164c0.055-0.541,0.108-2.108,0.108-2.379
		c0-0.432-0.757-0.648-0.919-0.648c-0.107,0-0.757,0.217-1.406,0.541c-1.082,0.541-2.488,1.027-3.515,1.514
		c-0.487,0.217-0.974,0.973-0.974,1.352c0,0.108,0.107,0.324,0.756,0.812c1.353,0.812,1.894,1.406,1.894,2.271
		c0,5.517-0.162,9.572-0.323,12.168c-0.055,1.189-0.379,1.839-2.759,2.596c-0.541,0.162-1.188,0.595-1.188,1.136
		s0.595,0.812,1.567,0.812c0.865,0,2.597-0.162,4.272-0.162c1.298,0,2.92,0.162,4.705,0.162c0.973,0,1.514-0.432,1.514-0.864
		s-0.434-0.92-1.406-1.298c-2.162-0.811-2.109-1.46-2.109-2.271c0-1.244,0-12.005,0-12.546c0-0.649,0.541-1.243,0.65-1.352
		c1.026-0.703,2.596-1.189,4.65-1.189c2.217,0,3.299,0.757,3.839,1.46c0.541,0.703,1.028,2.325,1.028,6.381
		c0,2.379,0,4.705-0.055,7.354C210.378,207.432,210,207.918,208.648,208.405z"/>
	<path d="M245.691,209c-2.758,0-6.327-1.352-8.383-5.949c-0.324-0.757-0.541-1.352-1.298-1.352c-0.433,0-0.919,0.541-0.919,1.729
		c0,1.298,0.217,3.462,0.866,4.813c0.271,0.595,0.485,0.865,0.757,1.082c1.244,0.974,5.408,1.893,7.896,1.893
		c2.271,0,5.516-0.811,7.408-2.055c1.73-1.082,4.164-3.678,4.164-7.192c0-5.083-3.461-7.625-8.814-10.708
		c-4.76-2.758-6.111-4.38-6.111-7.57c0-2.705,2.164-5.299,5.354-5.299c3.354,0,5.57,1.622,6.599,5.137
		c0.162,0.433,0.487,1.244,0.919,1.244c0.703,0,1.135-0.703,1.135-1.838c0-0.812-0.216-3.246-0.216-3.895
		c0-0.595-0.378-1.46-0.703-1.514c-1.893-0.487-4.218-1.298-6.706-1.298c-2.541,0-4.975,0.703-6.65,1.73
		c-2.164,1.352-4.327,3.785-4.327,7.354c0,5.191,4.002,8.221,7.192,10.168c5.787,3.623,7.301,5.299,7.301,7.948
		C251.152,207.27,247.962,209,245.691,209z"/>
	<path d="M267.955,210.73c0.378,0.107,1.352,0.107,2.001,0.107c1.136,0,4.435-0.433,5.948-1.136
		c5.408-2.326,8.166-6.489,8.166-11.735c0-2.486-1.135-5.947-3.461-8.003c-1.514-1.405-3.461-2.271-5.84-2.271
		c-1.027,0-2,0.162-3.299,0.648c-0.595,0.217-2.271,0.975-3.623,1.785c-0.217,0.107-0.541-0.054-0.541-0.271
		c0-0.648,0.161-1.729,0.161-2.162c0-0.217-0.541-0.758-0.757-0.758c-0.378,0-1.135,0.379-1.838,0.812
		c-0.811,0.541-2.65,1.298-3.461,1.676c-0.596,0.325-1.244,0.974-1.244,1.46c0,0.162,0.216,0.434,0.975,0.919
		c1.729,1.244,1.838,1.677,1.838,2.056c0.055,2.217,0.162,4.164,0.055,14.492c0,3.354-0.162,6.273-0.324,9.519
		c-0.107,1.839-0.434,2.866-2.975,3.569c-1.027,0.271-1.461,0.756-1.461,1.082c0,0.812,0.92,0.974,1.568,0.974
		c0.703,0,3.407-0.487,5.624-0.487c2.488,0,4.542-0.107,4.976-0.107c0.92,0,1.515-0.434,1.515-1.027
		c0-0.324-0.379-0.703-1.623-1.082c-2.758-0.811-2.92-1.406-2.92-2.163c-0.054-1.785,0-4.38,0-6.813
		C267.414,211.379,267.792,210.676,267.955,210.73z M267.576,192.992c0.054-0.487,0.595-0.973,0.703-1.027
		c0.974-0.648,2.326-1.136,4.109-1.136c4.76,0,6.922,4.976,6.922,9.03c0,3.029-1.352,5.463-2.541,6.707
		c-0.92,0.918-2.271,1.729-4.219,1.729c-0.595,0-3.027-0.595-4.65-2.92c-0.324-0.487-0.487-1.19-0.487-4.327
		C267.414,198.833,267.468,194.777,267.576,192.992z"/>
	<path d="M291.484,209.055c0.757,0.864,2.541,1.838,4.271,1.838c3.354,0,5.84-1.623,8.436-3.516
		c0.217-0.162,0.488,0.163,0.488,0.216c0.053,0.703,0.107,2.109,0.161,2.488s0.38,0.919,0.595,0.919
		c0.487,0,1.461-0.162,2.326-0.379c0.974-0.271,3.083-0.596,4.435-0.757c0.325-0.054,0.919-0.541,0.919-1.46
		c0-0.217-0.324-0.92-0.434-0.92c-0.541,0.055-2.379,0.324-2.758,0.324c-0.107,0-0.811-0.162-0.865-2.055
		c-0.107-2.379-0.054-14.006-0.054-16.332c0-0.595-0.378-1.298-0.595-1.298c-2.217,0.054-4.327,0.162-6.436,0.162
		c-0.703,0-1.353,0.541-1.353,0.866c0,0.486,0.541,0.918,1.298,1.188c0.648,0.216,1.244,0.487,1.785,0.703
		c0.378,0.108,0.813,1.082,0.813,1.676c0,2.597,0,9.193-0.217,10.979c-0.162,1.514-1.244,2.379-1.46,2.542
		c-0.541,0.378-2.325,1.188-3.948,1.188c-0.703,0-2.055-0.108-2.865-0.702c-0.758-0.596-1.299-1.244-1.353-4.164
		c-0.054-3.785-0.054-10.492-0.054-12.816c0-1.137-0.163-1.73-0.541-1.73s-4.164,0.271-5.354,0.271
		c-0.217,0-1.678,0.163-1.678,0.919c0,0.541,0.541,0.919,1.137,1.244c1.567,0.811,2.055,1.893,2.055,2.379
		c0,3.947,0,11.843,0,13.087C290.24,207.215,290.943,208.514,291.484,209.055z"/>
	<path d="M340.603,208.025c-0.974-0.485-1.352-0.973-1.405-2.541c-0.108-2.435-0.108-5.463-0.162-8.112
		c-0.054-3.731-0.757-5.949-1.623-7.192c-0.812-1.189-2.217-2.541-4.975-2.541c-3.407,0-6.003,1.622-7.68,2.758
		c-0.162,0.107-0.433,0.107-0.378-0.164c0.054-0.541,0.108-2.108,0.108-2.379c0-0.432-0.757-0.648-0.919-0.648
		c-0.108,0-0.757,0.217-1.406,0.541c-1.082,0.541-2.488,1.027-3.515,1.514c-0.487,0.217-0.974,0.973-0.974,1.352
		c0,0.108,0.108,0.324,0.757,0.812c1.353,0.812,1.894,1.406,1.894,2.271c0,5.517-0.163,9.572-0.325,12.168
		c-0.054,1.189-0.378,1.839-2.758,2.596c-0.541,0.162-1.19,0.595-1.19,1.136s0.596,0.812,1.568,0.812
		c0.865,0,2.596-0.162,4.271-0.162c1.299,0,2.921,0.162,4.705,0.162c0.975,0,1.515-0.432,1.515-0.864s-0.434-0.92-1.406-1.298
		c-2.163-0.811-2.109-1.46-2.109-2.271c0-1.244,0-12.005,0-12.546c0-0.649,0.541-1.243,0.649-1.352
		c1.026-0.703,2.596-1.189,4.65-1.189c2.218,0,3.3,0.757,3.84,1.46c0.541,0.703,1.027,2.325,1.027,6.381
		c0,2.379,0,4.705-0.054,7.354c-0.054,1.353-0.433,1.839-1.785,2.325c-0.919,0.379-1.188,0.812-1.188,1.137
		c0,0.703,0.757,0.865,1.46,0.865c0.648,0,1.838-0.163,3.406-0.163c1.623,0,3.354,0.163,4.057,0.163s1.567-0.325,1.567-0.865
		C342.226,209.055,341.847,208.514,340.603,208.025z"/>
	<path d="M225.544,103.766c-19.769,9.346-56.125,12.197-74.322,11.191c-20.352-1.125-31.578,1.087-40.922,6.635
		c-4.43,2.63-8.361,6.23-10.695,10.884c-1.807,3.601-2.394,7.814-1.371,11.732c1.036,3.97,3.633,7.621,7.103,9.73
		c5.09,3.094,10.004,3.993,15.374,4.185c8.415,0.301,24.256-0.725,45.369-9.9c19.054-8.28,30.297-18.011,38.389-23.1
		c11.717-7.367,23.575-8.823,32.305-8.003c10.254,0.963,14.277,6.467,16.33,13.781c2.451,8.739-0.231,18.848-3.471,23.377
		c-5.563,7.778-10.014,10.224-19.435,12.28c-6.583,1.437-13.784,0.845-16.917,0.396c-11.288-1.615-20.656-4.563-32.274-4.08
		c-13.52,0.563-23.369,7.013-29.724,14.288c-0.309,0.354,0.241,0.908,0.645,0.602c0.472-0.359,2.643-2.989,6.11-5.699
		c6.496-5.078,11.625-5.902,17.195-6.584c5.507-0.674,12.679-0.287,18.396,0.241c5.717,0.528,10.973,1.349,15.702,1.829
		c7.423,0.753,12.737,1.499,20.149,0.418c7.097-1.035,13.158-3.362,18.701-7.999c5.172-4.327,13.448-15.794,9.316-30.802
		c-6.081-22.084-36.719-17.648-56.432-2.901c-10.191,7.625-24.194,16.455-34.705,20.928c-7.635,3.25-18.227,7.311-31.237,8.695
		c-8.845,0.941-27.462-0.735-31.668-10.171c-5.433-12.187,7.117-25.468,21.475-28.413c25.196-5.168,34.714,6.969,85.063-7.226
		c19.621-5.532,26.542-10.716,30.579-17.134c4.264-6.778,4.912-15.534,2.003-22.724c-3.17-7.836-10.121-11.324-17.245-12.548
		c-6.469-1.111-19.582-0.772-39.166,14.439c-6.698,5.203-26.953,24.687-45.62,26.585c-16.197,1.646-25.136-5.314-26.942-10.024
		c-4.651-12.125,5.786-23.357,10.475-27.072c2.731-2.164,7.534-6.102,13.964-8.588c6.533-2.526,11.509-2.088,13.693-1.971
		s5.588,1.229,7.925,3.127c3.907,3.175,5.533,8.914,4.403,13.357c-0.549,2.16-2.537,7.145-7.692,8.795
		c-4.816,1.542-13.33-1.567-14.635-2.391c-0.553-0.349-1.04,0.51-0.462,0.792c8.851,4.328,15.823,4.572,21.654-0.28
		c4.066-3.383,6.913-7.741,5.105-14.978c-1.059-4.238-4.174-8.227-9.566-9.6c-4.077-1.039-9.832-0.643-13.913,0.202
		c-5.575,1.154-10.895,3.538-15.835,6.316c-6,3.375-11.585,7.677-15.595,13.337c-3.013,4.252-5.129,9.311-4.913,14.599
		c0.19,4.647,2.574,8.845,6.315,11.566c4.382,3.188,10.078,4.333,15.389,4.658c5.976,0.366,19.135,0.632,37.953-12.729
		c11.878-8.434,21.455-17.449,28.699-21.69c17.787-10.414,40.088-7.489,42.812,9.033C241.587,88.57,236.916,98.39,225.544,103.766z"
		/>
	<path d="M190.202,256.954c0.084-0.233-0.056-0.515-0.28-0.589s-0.508,0.046-0.578,0.24c-4.533,12.607-7.9,26.443-9.785,39.672
		c-0.225,1.58-0.38,3.16-0.503,4.744c-0.694-4.264-1.528-8.513-2.386-12.613c-2.502-11.955-5.877-23.75-10.325-35.131
		c-0.251-0.642-0.882-1.399-1.891-1.129c-1.08,0.289-1.323,1.386-1.109,1.934c9.346,24.795,14.571,50.781,14.571,59.009
		c0,0.707,0.544,1.362,1.483,1.253c0.928-0.107,1.162-0.933,1.112-1.645c0.011-10.627,0.728-15.254,1.933-22.727
		C184.245,278.82,186.373,267.605,190.202,256.954z"/>
	<path d="M323.656,214.543c-0.051-0.003-0.103-0.005-0.153-0.008C307.915,279.311,249.49,327.586,180,327.586
		c-69.348,0-127.677-48.078-143.408-112.65c-1.093,0.25-2.158,0.406-3.107,0.476c1.908,7.916,4.466,15.677,7.667,23.246
		c7.59,17.944,18.455,34.06,32.293,47.897c13.839,13.84,29.954,24.704,47.898,32.295c18.579,7.857,38.313,11.842,58.656,11.842
		c20.342,0,40.077-3.983,58.655-11.842c17.945-7.591,34.061-18.455,47.898-32.295c13.838-13.838,24.704-29.953,32.293-47.897
		c3.307-7.815,5.923-15.837,7.85-24.021c-0.034,0.002-0.067,0.004-0.102,0.004C325.524,214.641,324.532,214.588,323.656,214.543z"/>
	<path d="M180,32.414c81.379,0,147.586,66.207,147.586,147.586c0,1.414-0.021,2.822-0.062,4.227
		c0.948-0.318,1.993-0.576,3.125-0.713c0.026-1.17,0.042-2.341,0.042-3.514c0-20.342-3.984-40.077-11.844-58.656
		c-7.59-17.944-18.455-34.06-32.293-47.898c-13.839-13.838-29.953-24.704-47.897-32.293c-18.58-7.86-38.315-11.844-58.657-11.844
		c-20.343,0-40.077,3.984-58.656,11.843c-17.944,7.59-34.06,18.455-47.898,32.293c-13.838,13.839-24.704,29.954-32.293,47.898
		c-6.954,16.44-10.872,33.785-11.682,51.655c1.002-0.35,2.063-0.613,3.148-0.783C36.679,94.441,101.231,32.414,180,32.414z"/>
</g>
</svg>
